<svg xmlns="http://www.w3.org/2000/svg" xmlns:svg="http://www.w3.org/2000/svg" id="svg2" width="1500" height="1500" version="1.1" viewBox="0 0 1500 1500" xml:space="preserve"><metadata id="metadata8"/><defs id="defs6"><clipPath id="clipPath34" clipPathUnits="userSpaceOnUse"><path id="path36" d="m 0,1200 1920,0 L 1920,0 0,0 0,1200 Z"/></clipPath><clipPath id="clipPath72" clipPathUnits="userSpaceOnUse"><path id="path74" d="m 0,1200 1920,0 L 1920,0 0,0 0,1200 Z"/></clipPath></defs><g id="g10" transform="matrix(1.25,0,0,-1.25,0,1500)"><g id="g4158" transform="matrix(0.88925632,0,0,0.88925632,66.446206,66.446206)"><g style="opacity:.3;fill:#fff" id="g14" transform="matrix(2.2557686,0,0,2.2557686,113.211,415.44268)"><path id="path16" d="m 0,0 149.456,-89.981 0,176.333841 z" style="fill:#fff;fill-opacity:1;fill-rule:nonzero;stroke:none"/></g><g style="opacity:.5;fill:#fff" id="g18" transform="matrix(2.2557686,0,0,2.2557686,632.68,1158.1827)"><path id="path20" d="m 0,0 0,-196.574 -230.285,-132.689 0,199.633 L 0,0 Z" style="fill:#fff;fill-opacity:1;fill-rule:nonzero;stroke:none"/></g><g style="opacity:.3;fill:#fff" id="g22" transform="matrix(2.2557686,0,0,2.2557686,1086.7888,784.5559)"><path id="path24" d="m 0,0 -149.457,89.975 0,-176.169212 z" style="fill:#fff;fill-opacity:1;fill-rule:nonzero;stroke:none"/></g><g style="opacity:.5;fill:#fff" id="g26" transform="matrix(2.2557686,0,0,2.2557686,567.32,41.817255)"><path id="path28" d="m 0,0 0,196.574 230.285,132.688 0,-199.632 L 0,0 Z" style="fill:#fff;fill-opacity:1;fill-rule:nonzero;stroke:none"/></g></g><circle style="opacity:.5;fill:none;fill-opacity:1;stroke:#fff;stroke-width:28.45620155;stroke-linecap:round;stroke-linejoin:round;stroke-miterlimit:4;stroke-dasharray:none;stroke-opacity:1" id="path4156" cx="600" cy="-600" r="576.852" transform="scale(1,-1)"/></g></svg>